<svg width="1000" height="320" viewBox="0 0 1000 320" fill="none" xmlns="http://www.w3.org/2000/svg">
<path fill-rule="evenodd" clip-rule="evenodd" d="M475.5 51.8662C469.457 52.5112 468.682 54.0082 473.745 55.2542C480.695 56.9632 480.5 55.6562 480.5 100.564C480.5 135.096 480.709 140.953 481.943 140.953C482.737 140.953 484.19 139.594 485.171 137.933C486.368 135.907 487.455 135.122 488.477 135.548C504.664 142.291 515.494 141.199 524.539 131.913C541.079 114.932 530.535 83.8823 508.261 83.9753C503.102 83.9963 495.437 86.6283 494.064 88.8493C492.015 92.1653 491.5 88.4732 491.5 70.4532V50.9532L486.25 51.1162C483.362 51.2062 478.525 51.5432 475.5 51.8662ZM870.75 51.6852C865.22 52.1832 865.253 54.2052 870.815 55.6922C873.867 56.5092 875.477 57.6083 876.315 59.4473C877.157 61.2943 877.5 72.2952 877.5 97.4432V132.84L875.277 134.396C874.055 135.252 872.255 135.953 871.277 135.953C870.3 135.953 869.5 136.641 869.5 137.481C869.5 138.791 871.452 138.97 883.168 138.731C897.41 138.441 900.435 137.416 893.957 135.074C891.778 134.286 890.018 132.816 889.443 131.302C888.911 129.904 888.5 111.849 888.5 89.8882V50.9532L881.75 51.1282C878.038 51.2242 873.087 51.4752 870.75 51.6852ZM939.25 51.6922C935.059 51.9552 933.5 52.4463 933.5 53.5033C933.5 54.3003 934.379 54.9532 935.453 54.9532C938.683 54.9532 942.211 57.0232 943.39 59.6102C944.848 62.8122 944.939 130.265 943.488 132.976C942.931 134.016 940.887 135.165 938.944 135.529C936.982 135.898 935.58 136.694 935.79 137.322C936.316 138.9 963.684 138.9 964.21 137.322C964.418 136.7 963.33 135.878 961.794 135.494C955.704 133.975 955.5 133.292 955.5 114.433C955.5 94.4053 956.003 93.0692 964.497 90.5462C970.747 88.6903 974.362 89.6473 977.25 93.9202C979.374 97.0622 979.5 98.2452 979.5 114.978C979.5 134.299 979.468 134.409 973.616 135.58C971.859 135.931 970.589 136.721 970.794 137.336C971.324 138.926 998.689 138.886 999.22 137.294C999.432 136.657 998.233 135.834 996.554 135.465C991.012 134.248 990.5 132.364 990.5 113.198C990.5 94.4573 989.872 91.4033 985.115 87.0163C983.11 85.1673 981.053 84.4762 976.592 84.1532C969.286 83.6252 964.972 85.0013 959.645 89.5602L955.5 93.1092V72.0312V50.9532L950.25 51.1422C947.362 51.2462 942.412 51.4942 939.25 51.6922ZM348.188 58.5982C346.819 59.9682 347.561 60.8072 350.75 61.4942C352.538 61.8792 355.201 62.8083 356.67 63.5583L359.339 64.9213L359.673 93.6872C359.992 121.221 360.102 122.632 362.244 126.645C366.913 135.391 376.589 139.953 390.473 139.953C404.968 139.953 415.409 134.765 419.635 125.462C421.212 121.989 421.46 118.576 421.484 99.9532C421.524 69.1882 422.71 63.8682 429.854 62.4352C435.487 61.3052 436.5 60.8402 436.5 59.3862C436.5 58.1972 433.523 57.9532 419 57.9532C404.111 57.9532 401.5 58.1772 401.5 59.4532C401.5 60.2782 401.933 60.9532 402.462 60.9532C402.992 60.9532 405.879 61.8712 408.879 62.9942C416.451 65.8272 416.738 66.8603 417.262 93.1152C417.745 117.354 416.811 123.369 411.787 128.393C406.963 133.217 403.658 134.403 394.975 134.429C384.342 134.461 379.374 132.296 375.686 126.022L373 121.453V93.6172C373 65.9472 373.013 65.7702 375.253 63.9542C376.492 62.9502 379.327 61.8202 381.554 61.4442C383.941 61.0412 385.445 60.2872 385.219 59.6062C384.794 58.3292 349.421 57.3662 348.188 58.5982ZM676.5 59.3232C676.5 60.0953 678.482 61.2482 681.043 61.9652C688.652 64.0952 688.5 63.3402 688.5 98.9842C688.5 134.544 688.627 133.901 681.394 134.867C678.415 135.264 677 135.936 677 136.953C677 138.231 679.667 138.453 695 138.453C710.26 138.453 713 138.227 713 136.967C713 136.149 712.1 135.344 711 135.178C701.492 133.739 701.5 133.757 701.5 114.882V98.9532H721.5H741.5V115.298C741.5 129.863 741.301 131.823 739.671 133.298C738.665 134.208 736.677 134.953 735.253 134.953C731.624 134.953 729.5 135.924 729.5 137.583C729.5 138.762 732.55 138.953 747.75 138.726C763.09 138.496 766 138.217 766 136.97C766 136.031 764.624 135.263 762.253 134.878C760.193 134.543 757.605 133.453 756.503 132.456C754.576 130.712 754.5 129.391 754.5 97.8212V64.9992L756.75 63.5502C757.987 62.7532 760.707 61.7892 762.794 61.4082C764.938 61.0162 766.424 60.2232 766.211 59.5842C765.954 58.8122 760.07 58.3672 747.668 58.1802C732.678 57.9562 729.5 58.1512 729.5 59.3002C729.5 60.0952 731.41 61.2282 733.95 61.9392C741.325 64.0042 741.598 64.6982 741.279 80.5642L741 94.4532L721.25 94.7243L701.5 94.9952V79.9972C701.5 65.5282 701.579 64.9492 703.75 63.5882C704.987 62.8122 707.688 61.8822 709.75 61.5202C712.063 61.1142 713.5 60.3052 713.5 59.4082C713.5 58.1872 710.522 57.9532 695 57.9532C680.002 57.9532 676.5 58.2122 676.5 59.3232ZM907.213 67.5742C906.821 67.9662 906.5 71.9882 906.5 76.5132C906.5 85.6762 906.361 85.8573 899.75 85.3092C895.617 84.9663 895.5 85.0392 895.5 87.9552C895.5 90.9222 895.556 90.9532 901 90.9532H906.5L906.522 109.703C906.549 132.551 907.441 135.619 914.887 138.463C924.763 142.235 932.477 137.718 935.985 126.111C937.185 122.141 933.433 123.912 932.129 127.932C930.727 132.251 927.075 133.848 922.723 132.046C918.07 130.118 917.5 127.539 917.5 108.406V90.9532H925.566H933.633L933.316 88.2032C933.003 85.4792 932.929 85.4532 925.5 85.4182L918 85.3822L917.5 76.4182L917 67.4532L912.463 67.1572C909.967 66.9942 907.605 67.1822 907.213 67.5742ZM459.692 85.6292C457.873 86.5252 455.06 88.4962 453.442 90.0072L450.5 92.7552V88.8542V84.9532H445.14C432.465 84.9532 426.461 87.3452 433.736 89.4962C435.564 90.0372 437.514 91.5402 438.221 92.9532C439.775 96.0622 440.003 130.146 438.488 132.976C437.931 134.016 435.887 135.165 433.944 135.529C431.982 135.898 430.58 136.694 430.79 137.322C431.317 138.903 460.683 138.903 461.21 137.322C461.423 136.684 459.935 135.885 457.794 135.488C450.617 134.156 450.5 133.809 450.5 113.871V96.0993L454.228 93.0262C459.313 88.8342 461.5 88.9522 461.5 93.4182C461.5 97.1902 463.5 98.9532 467.779 98.9532C471.206 98.9532 473.7 95.7472 473.7 91.3432C473.7 84.7422 467.02 82.0173 459.692 85.6292ZM549.959 85.8332C545.068 88.0542 540.5 93.2213 540.5 96.5303C540.5 99.4062 543.739 102.953 546.365 102.953C547.391 102.953 549.436 102.004 550.91 100.845C553.334 98.9382 553.526 98.3123 552.924 94.2943C552.164 89.2272 553.892 87.0412 558.703 86.9852C565.29 86.9072 568.28 90.4882 569.223 99.5832L569.755 104.714L563.878 106.877C541.536 115.101 540.425 115.804 538.505 122.935C536.908 128.865 538.841 134.606 543.5 137.77C546.541 139.835 547.837 140.083 553.374 139.655C558.422 139.266 560.673 138.511 564.195 136.029L568.642 132.894L571.419 135.866C578.057 142.973 588.188 140.528 591.361 131.054C592.864 126.567 592.802 123.953 591.192 123.953C590.468 123.953 589.464 125.849 588.942 128.203C588.16 131.732 587.561 132.504 585.414 132.754C580.533 133.321 580.04 131.367 580.019 111.398C579.998 90.9132 579.529 89.3252 572.429 85.7052C567.676 83.2812 555.423 83.3512 549.959 85.8332ZM622.554 85.0572C621.208 85.5942 618.171 87.6213 615.804 89.5602L611.5 93.0872V89.0202V84.9532H606.14C598.093 84.9532 591.374 86.0732 591.792 87.3442C591.993 87.9542 593.125 88.5962 594.308 88.7702C595.492 88.9442 597.369 90.2423 598.48 91.6553C600.348 94.0293 600.5 95.6742 600.5 113.465C600.5 134.059 600.474 134.169 595.244 135.481C593.735 135.86 592.5 136.809 592.5 137.59C592.5 138.76 594.898 138.961 606.168 138.731C615.219 138.547 619.963 138.071 620.212 137.322C620.418 136.7 619.431 135.902 618.018 135.547C616.605 135.192 614.561 134.014 613.475 132.928C611.664 131.117 611.5 129.547 611.5 114.072V97.1902L614.592 94.1672C618.217 90.6232 625.213 88.5132 628.807 89.8802C630.144 90.3882 632.196 92.0232 633.369 93.5132C635.368 96.0542 635.5 97.3613 635.5 114.531C635.5 132.317 635.437 132.884 633.277 134.396C632.055 135.252 630.255 135.953 629.277 135.953C628.3 135.953 627.5 136.641 627.5 137.481C627.5 138.791 629.452 138.97 641.168 138.731C649.147 138.569 654.97 138.037 655.157 137.453C655.333 136.903 653.683 135.699 651.489 134.777L647.5 133.102V117.076C647.5 108.263 647.032 98.8672 646.459 96.1982C645.345 91.0052 641.845 86.4152 637.837 84.8913C634.681 83.6912 625.73 83.7882 622.554 85.0572ZM779.5 85.4942C774.432 87.7602 769.601 92.7242 766.887 98.4532C763.69 105.204 763.54 118.235 766.581 124.953C772.288 137.561 786.809 143.317 799.324 137.933C805.079 135.458 812.748 127.762 811.834 125.38C810.992 123.188 809.967 123.648 807.425 127.358C804.044 132.291 800.62 133.954 793.846 133.949C783.162 133.942 777.82 127.803 776.735 114.288L776.23 108.001L793.615 107.727L811 107.453L810.71 102.953C810.293 96.4682 806.971 90.2932 802.202 87.1372C798.84 84.9122 796.851 84.4082 790.573 84.1912C785.37 84.0112 781.905 84.4192 779.5 85.4942ZM827.959 85.8332C823.068 88.0542 818.5 93.2213 818.5 96.5303C818.5 99.4062 821.739 102.953 824.365 102.953C825.391 102.953 827.436 102.004 828.91 100.845C831.334 98.9382 831.526 98.3123 830.924 94.2943C830.374 90.6302 830.586 89.6022 832.129 88.4342C835.714 85.7192 842.867 87.1082 845.291 90.9902C845.942 92.0322 846.772 95.4202 847.137 98.5182C847.915 105.141 848.198 104.86 837 108.577C823.448 113.074 819.624 115.419 817.31 120.65C810.276 136.551 828.684 146.517 843.614 134.891L847.228 132.077L848.579 134.6C851.4 139.872 858.601 141.408 864.275 137.949C867.676 135.875 868.899 133.673 870.046 127.56C871.067 122.115 868.158 122.718 866.942 128.203C866.16 131.732 865.561 132.504 863.414 132.754C858.502 133.325 858 131.342 858 111.377C858 90.9222 857.529 89.3252 850.429 85.7052C845.676 83.2812 833.423 83.3512 827.959 85.8332ZM794.96 89.5052C797.416 92.1542 800.097 100.954 799.179 103.347C798.782 104.382 795.897 104.76 787.434 104.885L776.215 105.052L776.866 100.302C777.572 95.1472 780.787 89.6252 783.987 88.0682C787.846 86.1902 792.447 86.7922 794.96 89.5052ZM510.471 90.4382C521.887 96.3422 523.697 122.354 513.442 133.134C510.345 136.391 509.184 136.953 505.559 136.953C499.955 136.953 495.907 134.425 493.479 129.409C491.777 125.893 491.5 123.224 491.5 110.328C491.5 99.8452 491.876 94.8592 492.75 93.7512C496.259 89.3052 505.087 87.6542 510.471 90.4382ZM569.002 119.203C568.203 130.665 567.364 132.314 561.428 134.093C556.121 135.683 552.753 134.552 550.839 130.538C547.427 123.383 552.315 114.703 561.813 111.052C570.085 107.871 569.813 107.562 569.002 119.203ZM847.081 119.193C846.304 130.463 845.487 132.142 839.876 133.994C835.058 135.584 830.769 134.373 828.983 130.919C825.046 123.306 829.653 115.04 840.111 110.956C848.094 107.838 847.88 107.586 847.081 119.193ZM477.689 167.681C473.53 168.193 474 170.081 478.568 171.208C485.66 172.957 485.5 172.003 485.5 212.441C485.5 251.406 485.688 250.034 480.179 251.352C478.627 251.723 477.517 252.503 477.711 253.085C478.037 254.064 480.555 254.167 500.083 254.001C506.392 253.947 507.036 252.382 501.496 250.57C499.207 249.821 497.854 248.629 497.39 246.953C497.01 245.578 496.655 227.016 496.6 205.703L496.5 166.953L488.75 167.113C484.487 167.201 479.51 167.457 477.689 167.681ZM507.689 167.681C503.451 168.203 504.023 170.147 508.744 171.263C516.148 173.014 515.966 172.062 516.288 210.758C516.595 247.569 516.246 250.939 512.129 250.968C509.675 250.986 506.782 252.568 507.638 253.424C508.37 254.157 534.444 254.342 535.166 253.62C536.107 252.68 534.443 250.953 532.596 250.953C531.614 250.953 530.065 250.13 529.155 249.124C527.673 247.486 527.5 243.101 527.5 207.124V166.953L519.25 167.113C514.712 167.201 509.51 167.457 507.689 167.681ZM590.188 167.666C585.621 168.163 585.723 170.11 590.366 171.059C592.135 171.421 594.463 172.515 595.541 173.49C597.425 175.195 597.5 176.818 597.5 216.108C597.5 251.432 597.699 256.953 598.974 256.953C599.785 256.953 601.147 255.603 602 253.953C603.854 250.368 603.929 250.36 610.123 253.147C617.002 256.242 628.38 256.279 634.134 253.225C643.91 248.036 649.474 238.802 649.49 227.741C649.514 211.236 639.567 199.953 624.992 199.953C619.632 199.953 612.524 202.487 611.009 204.939C609.343 207.634 609 204.517 609 186.704V167.453L601.5 167.352C597.375 167.297 592.285 167.438 590.188 167.666ZM856.135 172.026C850.834 176.195 854.252 184.953 861.18 184.953C864.36 184.953 868.5 180.711 868.5 177.453C868.5 174.195 864.36 169.953 861.18 169.953C859.854 169.953 857.584 170.886 856.135 172.026ZM383.027 173.082C372.209 174.63 361.758 181.32 355.574 190.654C343.855 208.348 347.187 235.755 362.533 247.885C369.771 253.606 376.034 255.459 388 255.421C396.816 255.393 398.597 255.078 403.04 252.76C410.138 249.059 419.5 238.39 419.5 234.003C419.5 231.665 415.691 233.077 414.547 235.839C412.8 240.057 407.644 244.969 402.5 247.316C397.142 249.76 387.659 250.096 382.5 248.024C368.955 242.586 361.595 226.859 363.513 207.453C365.531 187.038 373.779 176.406 387.539 176.484C397.527 176.541 406.427 183.954 411.493 196.435C412.725 199.47 414.355 201.953 415.116 201.953C416.231 201.953 416.5 199.134 416.5 187.453V172.953H413.5C411.85 172.953 410.5 173.317 410.5 173.762C410.5 174.207 409.927 175.354 409.228 176.311C408.031 177.947 407.628 177.905 402.478 175.612C395.748 172.615 390.796 171.971 383.027 173.082ZM817.5 191.851V200.853L811.75 201.153C806.363 201.434 806 201.611 806 203.953C806 206.295 806.363 206.472 811.75 206.753L817.5 207.053V226.035C817.5 246.819 818.176 250.2 822.955 253.332C826.112 255.4 834.997 255.828 838.282 254.07C841.614 252.286 845.535 246.514 846.2 242.412C846.969 237.673 844.512 237.97 843.269 242.766C842.055 247.452 838.515 249.443 834.03 247.963C832.08 247.319 830.038 245.958 829.492 244.939C828.941 243.909 828.5 235.071 828.5 225.061V207.037L836.25 206.745C843.772 206.462 844 206.379 844 203.953C844 201.51 843.81 201.446 835.689 201.162L827.378 200.87L827.592 192.162L827.806 183.453L822.653 183.151L817.5 182.848V191.851ZM439.259 201.376C434.019 203.246 431.058 205.355 427.949 209.43C424.025 214.576 422.591 219.511 422.566 227.953C422.541 236.576 424.677 242.429 429.807 247.791C435.454 253.693 439.919 255.427 449.5 255.441C456.969 255.452 458.563 255.122 462.645 252.723C471.534 247.497 475.352 240.946 476.224 229.424C477.559 211.767 467.002 199.924 450 200.007C446.15 200.025 441.317 200.642 439.259 201.376ZM552 201.181C540.591 205.252 537.499 217.953 547.916 217.953C552.743 217.953 554.735 215.275 553.881 209.935C553.319 206.419 553.527 205.406 555.039 204.301C557.635 202.402 563.878 202.623 566.404 204.703C569.075 206.902 571.458 217.21 569.875 219.72C569.294 220.641 563.46 223.297 556.909 225.623C543.209 230.488 540.054 233.075 538.965 240.34C538.091 246.169 540.632 251.554 545.5 254.188C551.368 257.362 562.129 255.255 568.155 249.751C570.303 247.789 570.313 247.79 570.981 249.894C571.971 253.014 575.853 255.124 580.738 255.198C588.042 255.308 591.44 252.12 593.026 243.668C594.077 238.065 591.24 238.736 589.711 244.453C588.712 248.19 588.104 248.953 586.126 248.953C581.455 248.953 581 247.037 581 227.377C581 206.923 580.529 205.325 573.429 201.705C569.508 199.705 556.993 199.4 552 201.181ZM671.127 201.421C665.489 203.431 660.622 207.771 657.628 213.46C655.323 217.84 655.001 219.619 655.009 227.953C655.02 238.426 656.16 241.725 661.862 247.791C667.394 253.675 671.902 255.429 681.5 255.432C691.078 255.436 694.481 254.146 700.756 248.134C708.217 240.985 710.68 226.855 706.44 215.523C704.029 209.079 697.741 202.941 691.693 201.129C686.46 199.561 675.926 199.711 671.127 201.421ZM726 200.63C724.9 200.776 721.075 201.021 717.5 201.175C712.513 201.388 711 201.802 711 202.953C711 203.778 711.966 204.591 713.146 204.759C714.326 204.927 716.126 205.986 717.146 207.111C718.78 208.914 719.037 211.303 719.315 227.228C719.488 237.167 719.371 246.33 719.055 247.59C718.645 249.224 717.335 250.19 714.49 250.956C706.776 253.033 710.31 253.953 726 253.953C740.733 253.953 745.565 252.959 738.25 251.434C736.462 251.062 733.987 250.115 732.75 249.332C730.554 247.941 730.5 247.48 730.5 230.034V212.16L734.035 209.057C738.952 204.739 741.294 204.927 741.69 209.671C741.959 212.897 742.427 213.511 745.219 214.307C750.319 215.761 753.5 213.141 753.5 207.487C753.5 204.053 753.004 202.719 751.277 201.51C747.034 198.538 740.04 200.086 733.75 205.39L730.5 208.131V204.649C730.5 201.072 729.486 200.166 726 200.63ZM766.734 202.066C759.566 205.614 756.818 210.941 759.535 216.019C760.698 218.192 765.36 218.633 768.636 216.88C770.3 215.99 770.595 214.949 770.373 210.761C770.058 204.827 771.778 202.934 777.441 202.985C783.743 203.041 786.5 206.794 786.5 215.315V220.809L781.25 222.745C778.362 223.81 773.75 225.419 771 226.32C759.542 230.074 755.141 235.102 755.777 243.711C756.054 247.462 756.829 249.674 758.48 251.432C763.817 257.113 774.08 257.119 782.511 251.446C787.102 248.356 787.465 248.266 788.038 250.073C789.466 254.571 798.597 256.845 803.879 254.018C806.665 252.527 809.135 248.051 809.66 243.54C810.137 239.454 807.838 239.12 806.976 243.15C805.654 249.328 801.863 250.963 798.998 246.591C797.725 244.647 797.499 241.232 797.725 227.341C797.977 211.885 797.828 210.156 795.966 206.953C792.966 201.791 788.518 199.956 779 199.955C772.872 199.955 770.002 200.449 766.734 202.066ZM859.5 200.641C845.228 201.415 843.058 202.592 850.449 205.549C852.571 206.398 854.727 208.155 855.364 209.554C856.072 211.107 856.5 218.547 856.5 229.278C856.5 248.324 855.979 250.25 850.499 251.453C845.839 252.477 846.958 253.817 852.75 254.151C861.161 254.635 875.5 253.887 875.5 252.964C875.5 252.499 873.813 251.293 871.75 250.285L868 248.453L867.5 224.535C867.191 209.731 866.619 200.565 866 200.48C865.45 200.404 862.525 200.477 859.5 200.641ZM941.944 201.789C928.752 207.945 923.506 227.807 931.133 242.721C936.333 252.888 947.189 257.684 959.015 255.037C963.752 253.977 965.701 252.831 970.236 248.439C975.258 243.574 976.397 241.064 973.938 240.279C973.422 240.114 972.03 241.477 970.845 243.307C966.545 249.947 955.153 252.177 948.398 247.702C943.54 244.483 940.202 237.207 940.09 229.592L940 223.453H957H974L973.853 218.08C973.692 212.186 970.525 206.515 965.177 202.547C961.126 199.541 947.7 199.103 941.944 201.789ZM871.5 202.424C871.5 203.265 872.168 203.953 872.984 203.953C873.801 203.953 875.787 205.191 877.4 206.703C880.269 209.395 881.843 212.793 893.609 241.698C898.306 253.237 899.294 254.943 901.281 254.948C902.561 254.951 903.828 254.184 904.167 253.203C905.86 248.295 911.268 234.937 916.661 222.34C922.072 209.702 923.109 207.977 926.575 205.84C933.031 201.86 931.811 200.953 920 200.953C911.594 200.953 909.5 201.236 909.5 202.374C909.5 203.155 910.855 204.092 912.51 204.455C916.932 205.426 918.524 207.402 917.546 210.704C916.274 215.002 906.498 238.355 905.591 239.262C904.751 240.102 892.418 210.964 892.151 207.508C892.043 206.114 892.929 205.292 895.282 204.605C901.868 202.68 898.09 201.458 884.668 201.174C873.397 200.935 871.5 201.115 871.5 202.424ZM456.778 204.957C458.179 206.059 460.363 209.097 461.631 211.707C463.563 215.684 463.939 218.074 463.954 226.453C463.976 238.406 462.524 243.865 458.017 248.783C455.004 252.071 454.134 252.453 449.657 252.453C445.709 252.453 444.1 251.929 441.983 249.953C437.254 245.538 435.267 240.267 434.721 230.691C433.716 213.067 439.068 202.953 449.4 202.953C452.719 202.953 455.027 203.58 456.778 204.957ZM690.02 206.273C694.925 211.178 696.911 218.987 696.216 230.633C695.769 238.133 695.152 240.821 692.952 244.864C690.134 250.042 685.921 252.953 681.247 252.953C677.331 252.953 672.197 248.847 669.622 243.656C664.79 233.915 665.843 214.872 671.62 207.527C674.287 204.137 676.758 203.098 682.35 203.016C685.987 202.963 687.244 203.497 690.02 206.273ZM958.259 205.203C960.954 208.08 962.5 212.181 962.5 216.452V219.82L952.616 220.137C939.172 220.567 939.163 220.564 939.992 216.146C941.514 208.033 946.315 202.953 952.461 202.953C954.997 202.953 956.811 203.657 958.259 205.203ZM628.587 207.233C635.608 211.964 638.829 223.31 636.591 235.419C634.483 246.821 629.112 252.953 621.234 252.953C617.956 252.953 616.588 252.276 613.382 249.071L609.5 245.188V227.169V209.149L612.75 207.068C617.251 204.186 624.172 204.258 628.587 207.233ZM570.142 231.1C569.789 234.48 569.5 238.919 569.5 240.963C569.5 250.396 554.978 254.349 551.466 245.872C550.061 242.479 550.724 236.787 552.913 233.446C554.583 230.897 565.703 224.953 568.802 224.953C570.634 224.953 570.736 225.421 570.142 231.1ZM786.5 234.779C786.5 243.677 786.288 244.803 784.25 246.712C779.335 251.317 771.872 251.749 768.964 247.598C768.159 246.449 767.5 243.786 767.5 241.681C767.5 234.659 771.197 230.219 780 226.669C786.577 224.017 786.5 223.921 786.5 234.779ZM522.5 284.953C522.5 285.503 522.95 285.953 523.5 285.953C525.136 285.953 524.686 288.413 520.921 300.06C518.953 306.148 517.584 311.37 517.878 311.665C519.284 313.07 521.226 310.663 522.856 305.494C524.723 299.571 527.432 295.953 530 295.953C532.033 295.953 531.888 297.752 529.37 303.811C527.638 307.979 527.474 309.217 528.493 310.444C530.253 312.566 534.232 312.323 535.465 310.019C537.066 307.027 536.687 306.241 534.884 308.815C532.278 312.536 530.895 309.922 532.865 304.998C533.764 302.751 534.5 299.812 534.5 298.468C534.5 295.327 531.302 293.453 528.5 294.953C526.057 296.261 525.964 295.184 528.029 289.453C529.991 284.007 529.971 283.953 526 283.953C524.075 283.953 522.5 284.403 522.5 284.953ZM577.5 284.953C577.5 285.503 577.95 285.953 578.5 285.953C580.063 285.953 579.766 287.728 576.38 298.616C574.642 304.206 573.493 309.493 573.828 310.366C574.728 312.711 579.131 312.318 580.943 309.73C583.285 306.387 582.814 305.284 580.371 308.389C576.449 313.376 576.492 309.509 580.494 297.419C582.673 290.838 584.466 285.116 584.478 284.703C584.49 284.29 582.925 283.953 581 283.953C579.075 283.953 577.5 284.403 577.5 284.953ZM618.295 286.657C616.828 288.195 615.173 290.656 614.617 292.126C614.031 293.68 612.643 294.988 611.304 295.249C609.001 295.699 609.001 295.699 611.158 296.419L613.315 297.138L610.987 305.599C607.783 317.247 604.518 321.953 603.183 316.848C602.516 314.3 600 314.844 600 317.536C600 319.02 600.826 319.522 603.657 319.758C606.802 320.02 607.673 319.593 609.874 316.707C611.281 314.862 613.421 309.662 614.628 305.152C616.582 297.849 617.078 296.953 619.161 296.953C620.448 296.953 621.5 296.503 621.5 295.953C621.5 295.403 620.6 294.953 619.5 294.953C618.4 294.953 617.5 294.714 617.5 294.421C617.5 292.861 620.414 287.267 621.845 286.081C623.296 284.877 623.5 284.969 623.5 286.831C623.5 288.31 624.127 288.953 625.57 288.953C627.144 288.953 627.563 288.414 627.32 286.703C626.814 283.14 621.675 283.114 618.295 286.657ZM674.5 284.953C674.5 285.503 675.175 285.953 676 285.953C678 285.953 677.964 286.207 674.5 296.453C670.1 309.471 670.595 311.953 677.596 311.953C686.271 311.953 692.242 296.91 684.539 294.465C683.459 294.123 681.659 294.333 680.538 294.933C678.102 296.236 678.111 296.306 680 290.953C682.212 284.684 682.003 283.953 678 283.953C676.075 283.953 674.5 284.403 674.5 284.953ZM693.5 284.846C693.5 285.337 694.132 285.981 694.904 286.278C696.041 286.714 695.647 288.932 692.829 297.941C689.201 309.539 689.311 311.953 693.467 311.953C695.197 311.953 698.5 309.012 698.5 307.471C698.5 307.018 697.66 307.616 696.633 308.8C692.416 313.662 692.51 310.669 697.018 296.546C698.933 290.547 700.5 285.26 700.5 284.796C700.5 284.332 698.925 283.953 697 283.953C695.075 283.953 693.5 284.355 693.5 284.846ZM799.5 284.846C799.5 285.337 800.153 285.99 800.951 286.296C802.147 286.755 801.791 288.661 798.923 297.153C797.01 302.818 795.569 308.353 795.722 309.453C796.147 312.508 801.31 312.168 803.316 308.953L804.875 306.453L802.628 308.725C801.392 309.975 800.01 310.768 799.556 310.488C799.102 310.207 800.479 304.46 802.615 297.715C804.752 290.971 806.5 285.116 806.5 284.703C806.5 284.29 804.925 283.953 803 283.953C801.075 283.953 799.5 284.355 799.5 284.846ZM822.5 284.87C822.5 285.374 823.029 285.963 823.674 286.178C824.488 286.449 823.721 290.191 821.174 298.368C816.98 311.837 816.922 312.215 819.12 311.776C820.131 311.574 821.46 309.104 822.656 305.202C823.958 300.958 825.38 298.422 827.088 297.303C830.997 294.742 831.644 296.718 829.194 303.735C826.829 310.505 827.309 311.902 832.009 311.938C833.927 311.952 837.173 308.293 836.15 307.27C835.882 307.001 835.16 307.72 834.546 308.867C833.932 310.014 832.995 310.953 832.465 310.953C831.031 310.953 831.295 307.689 833.073 303.433C835.739 297.053 833.312 292.933 828.063 294.929L825.644 295.849L827.572 290.244C828.632 287.162 829.5 284.485 829.5 284.296C829.5 284.108 827.925 283.953 826 283.953C824.075 283.953 822.5 284.366 822.5 284.87ZM462.158 287.948C460.772 289.595 459.367 291.796 459.036 292.84C458.705 293.883 457.436 295.058 456.217 295.451C454.327 296.06 454.258 296.234 455.75 296.632C457.964 297.224 457.946 297.736 455.391 306.84C452.401 317.496 449.431 321.62 448.183 316.848C447.516 314.3 445 314.844 445 317.536C445 318.966 445.822 319.532 448.24 319.766C453.021 320.227 456.039 316.386 459.204 305.813C461.536 298.024 462.113 297.009 464.413 296.645L467 296.235L464.676 295.458C462.769 294.82 462.469 294.212 463.004 292.067C463.716 289.213 466.253 285.953 467.762 285.953C468.286 285.953 468.448 286.645 468.124 287.491C467.363 289.473 470.412 290.713 471.544 288.882C472.761 286.913 470.727 284.953 467.466 284.953C465.597 284.953 463.847 285.94 462.158 287.948ZM707.492 286.462C706.548 287.6 706.488 288.341 707.275 289.128C708.792 290.645 711.717 289.316 711.324 287.289C710.875 284.973 709.054 284.58 707.492 286.462ZM448.88 287.405C448.183 289.22 449.195 290.953 450.952 290.953C452.468 290.953 453.792 288.235 452.944 286.863C452.07 285.448 449.499 285.792 448.88 287.405ZM491.142 288.198C489.778 289.438 488.369 291.469 488.011 292.71C487.348 295.012 489.321 297.416 496.049 302.504C499.28 304.947 498.828 308.027 494.981 309.78C491.554 311.341 487.914 309.54 486.465 305.565C485.442 302.759 485.255 302.65 484.564 304.453C484.142 305.553 483.517 307.611 483.174 309.026C482.553 311.588 482.581 311.6 489.382 311.783C498.196 312.02 501.5 309.862 501.5 303.871C501.5 300.224 501.132 299.708 496.5 296.858C490.858 293.386 490.126 290.899 494 288.361C496.316 286.844 496.684 286.844 499 288.361C500.375 289.262 501.5 290.889 501.5 291.976C501.5 293.063 501.92 293.953 502.433 293.953C503.271 293.953 503.7 292.977 505.067 287.953C505.391 286.762 504.256 286.401 499.549 286.198C494.585 285.985 493.22 286.31 491.142 288.198ZM633.065 286.847C632.678 287.474 633.057 287.953 633.941 287.953C635.956 287.953 635.978 287.755 632.652 299.453C630.659 306.462 629.314 309.55 628.154 309.776C624.536 310.484 626.794 311.953 631.5 311.953C634.25 311.953 636.5 311.503 636.5 310.953C636.5 310.403 636.05 309.953 635.5 309.953C634.188 309.953 634.23 307.027 635.598 303.102C636.581 300.281 637.111 299.953 640.675 299.953C643.739 299.953 645.326 299.281 647.577 297.03C650.79 293.817 651.232 291.336 649.109 288.433C648.031 286.959 646.145 286.442 640.733 286.136C636.302 285.886 633.499 286.146 633.065 286.847ZM739 286.953C738.66 287.503 739.084 287.953 739.941 287.953C741.949 287.953 741.973 287.725 738.75 299.349C736.778 306.46 735.505 309.397 734.25 309.727C730.731 310.651 732.632 311.953 737.5 311.953C742.092 311.953 744.214 310.691 741.271 309.71C740.322 309.394 740.39 308.175 741.566 304.377L743.091 299.453L748.795 299.153C751.933 298.988 754.5 299.019 754.5 299.222C754.5 299.424 753.808 301.922 752.961 304.771C752.018 307.948 750.857 309.953 749.961 309.953C749.158 309.953 748.5 310.403 748.5 310.953C748.5 311.503 750.75 311.953 753.5 311.953C758.107 311.953 760.211 310.691 757.25 309.702C756.254 309.37 756.265 308.284 757.304 304.369C760.832 291.068 761.755 288.699 763.595 288.218C764.63 287.947 765.231 287.327 764.93 286.839C764.172 285.613 754.5 285.718 754.5 286.953C754.5 287.503 755.224 287.953 756.108 287.953C757.786 287.953 757.637 289.834 755.517 295.409C754.639 297.719 754.031 297.953 748.916 297.953C743.434 297.953 743.3 297.887 743.9 295.497C745.18 290.397 746.5 287.953 747.975 287.953C748.814 287.953 749.5 287.503 749.5 286.953C749.5 286.403 747.277 285.953 744.559 285.953C741.841 285.953 739.34 286.403 739 286.953ZM355.702 288.31C357.289 289.516 357.215 290.256 354.589 299.318C352.914 305.099 351.01 309.611 349.887 310.461C348.193 311.743 348.721 311.893 355.038 311.921C360.396 311.945 363.139 311.416 366.53 309.703C375.407 305.218 378.331 295.63 372.577 289.876C369.837 287.136 369.164 286.955 361.827 286.985C355.211 287.012 354.263 287.217 355.702 288.31ZM369.284 290.338C373.29 294.251 370.982 304.47 365.31 307.927C361.356 310.338 356.5 310.634 356.5 308.464C356.5 306.414 360.509 291.873 361.697 289.615C362.76 287.596 366.878 287.988 369.284 290.338ZM645.663 290.412C646.553 292.364 646.458 293.368 645.203 295.284C643.845 297.356 638.719 299.485 637.642 298.424C637.446 298.23 637.868 295.795 638.581 293.012C639.674 288.75 640.246 287.953 642.21 287.953C643.718 287.953 644.939 288.823 645.663 290.412ZM811.382 291.863C810.635 294.005 809.644 294.963 808.152 294.985C806.105 295.015 806.089 295.084 807.827 296.402C809.58 297.73 809.584 298.012 807.929 303.262C806.98 306.273 806.481 309.46 806.82 310.345C808.166 313.851 815.573 310.876 815.46 306.874C815.438 306.093 814.749 306.691 813.928 308.203C812.414 310.994 811.054 311.659 810.081 310.083C809.785 309.605 810.475 306.455 811.613 303.083C813.15 298.533 814.16 296.953 815.533 296.953C816.55 296.953 817.66 296.503 818 295.953C818.34 295.403 817.674 294.953 816.521 294.953C814.848 294.953 814.482 294.419 814.712 292.308C815.128 288.488 812.672 288.16 811.382 291.863ZM513.965 296.783C513.999 299.387 514.452 299.953 516.5 299.953C518.216 299.953 517.593 296.073 515.715 295.068C514.207 294.261 513.936 294.526 513.965 296.783ZM548.75 295.612C549.712 296.711 550.499 298.925 550.498 300.532C550.496 304.853 547.392 310.453 545 310.453C542.035 310.453 541.669 303.026 544.406 298.388C546.578 294.706 546.447 294.376 543.445 295.983C540.996 297.293 538.5 302.082 538.5 305.469C538.5 309.983 540.205 311.953 544.112 311.953C548.19 311.953 552.967 307.925 554.062 303.562C554.732 300.892 552.937 294.953 551.46 294.953C551.022 294.953 549.839 294.652 548.832 294.283C547.082 293.644 547.078 293.703 548.75 295.612ZM566.106 294.68C565.782 295.004 566.022 295.877 566.638 296.619C569.316 299.846 565.654 310.953 561.912 310.953C558.62 310.953 559.077 302.031 562.599 297.554C565.458 293.919 562.722 294.068 559.205 297.739C553.523 303.67 555.105 311.953 561.919 311.953C568.376 311.953 573.638 302.816 570.528 297.005C569.466 295.02 567.041 293.745 566.106 294.68ZM601.5 294.894C601.5 295.412 601.95 296.113 602.5 296.453C605.563 298.346 601.672 310.453 598 310.453C594.201 310.453 594.708 300.7 598.701 296.981C599.92 295.845 600.325 294.953 599.623 294.953C593.665 294.953 588.889 306.2 593.071 310.382C598.213 315.523 609.027 307.174 607.112 299.542C606.17 295.79 601.5 291.922 601.5 294.894ZM702.723 295.51C701.5 296.366 700.5 297.766 700.5 298.62C700.5 299.745 701.029 299.522 702.414 297.814C705.417 294.11 705.976 296.353 703.544 302.346C700.75 309.228 701.08 311.453 704.892 311.453C706.86 311.453 708.249 310.671 709.332 308.953L710.909 306.453L708.38 308.712C706.989 309.955 705.571 310.69 705.228 310.347C704.884 310.004 705.671 306.888 706.975 303.424C709.228 297.438 709.259 297.045 707.594 295.538C705.446 293.594 705.457 293.594 702.723 295.51ZM718.888 294.933C716.044 296.082 712.785 300.379 711.981 304.041C710.514 310.721 717.842 314.723 722.461 309.764C723.582 308.561 724.5 307.126 724.5 306.576C724.5 306.026 723.582 306.561 722.461 307.764C720.08 310.32 716.698 310.633 715.833 308.378C714.978 306.15 717.244 299.209 719.594 296.859C721.867 294.586 724.321 295.259 722.363 297.618C721.376 298.808 721.406 299.277 722.517 299.963C723.28 300.435 724.263 300.599 724.702 300.328C726.214 299.394 725.496 296.021 723.566 294.988C721.36 293.808 721.664 293.811 718.888 294.933ZM768.488 295.326C765.773 296.203 764.462 297.538 762.575 301.346C760.36 305.816 760.276 306.464 761.607 308.846C763.578 312.375 767.93 312.837 771.104 309.855C772.422 308.617 773.485 307.12 773.467 306.529C773.448 305.937 772.661 306.375 771.717 307.502C769.46 310.194 767.014 311.067 765.622 309.675C763.266 307.319 764.474 305.004 769.25 302.722C772.907 300.975 774.07 299.849 774.304 297.831C774.682 294.572 773.026 293.859 768.488 295.326ZM782.918 294.921C779.132 296.454 775.5 301.795 775.5 305.83C775.5 307.878 776.04 310.093 776.7 310.753C778.149 312.202 783.5 312.36 783.5 310.953C783.5 310.403 784.175 309.953 785 309.953C785.825 309.953 786.5 310.403 786.5 310.953C786.5 312.863 791.383 311.958 792.92 309.763C793.764 308.559 794.229 307.349 793.954 307.074C793.679 306.799 792.737 307.597 791.861 308.848C788.898 313.078 788.414 309.557 790.938 302.135L793.389 294.93L790.694 295.075C789.212 295.154 787.325 294.963 786.5 294.649C785.675 294.335 784.063 294.457 782.918 294.921ZM379.522 297.929C377.993 299.566 376.498 302.153 376.2 303.679C374.464 312.566 385.019 315.115 389.831 306.97C395.086 298.073 386.458 290.505 379.522 297.929ZM394.7 296.153C394.04 296.813 393.5 297.988 393.5 298.764C393.5 299.656 394.223 299.307 395.467 297.814C397.316 295.594 397.435 295.572 397.456 297.453C397.468 298.553 396.808 301.662 395.989 304.362C394.133 310.481 394.12 311.953 395.922 311.953C396.705 311.953 397.859 310.266 398.487 308.203C401.156 299.44 404.5 293.948 404.5 298.328C404.5 300.471 409.339 300.034 410.04 297.828C410.723 295.674 412.5 295.291 412.5 297.298C412.5 298.037 411.611 301.3 410.525 304.548C408.126 311.717 408.11 311.953 410.021 311.953C411.568 311.953 412.098 310.987 414.989 302.907C416.675 298.196 420.023 295.076 421.649 296.702C422.199 297.252 421.706 299.849 420.408 303.242C419.223 306.338 418.52 309.564 418.846 310.412C419.492 312.095 424.5 312.574 424.5 310.953C424.5 310.403 424.163 310.066 423.75 310.203C422.318 310.68 422.416 308.894 424.12 303.491C425.527 299.025 425.603 297.782 424.544 296.506C423.056 294.713 419.396 294.457 417.818 296.035C417.042 296.811 416.137 296.743 414.618 295.795C412.854 294.693 412.132 294.702 410.295 295.849C408.727 296.828 407.981 296.897 407.712 296.089C407.214 294.596 404.219 294.634 402.7 296.153C401.767 297.086 401.233 297.086 400.3 296.153C399.64 295.493 398.38 294.953 397.5 294.953C396.62 294.953 395.36 295.493 394.7 296.153ZM433.25 296.033C430.541 297.611 431.005 302.399 434.061 304.401C437.532 306.676 437.067 310.33 433.25 310.769C430.323 311.106 429.737 310.116 431.7 308.153C432.568 307.285 432.598 306.651 431.807 305.86C430.538 304.591 425.447 307.417 425.579 309.318C425.629 310.044 425.84 310.003 426.162 309.203C426.861 307.471 428.5 307.633 428.5 309.434C428.5 311.379 433.091 312.481 436.39 311.329C440.224 309.989 440.545 304.92 436.973 302.111C434.065 299.823 433.974 296.678 436.801 296.134C438.257 295.853 438.462 296.258 437.931 298.372C437.432 300.361 437.66 300.953 438.923 300.953C441.108 300.953 442.03 298.297 440.489 296.44C439.072 294.733 435.799 294.549 433.25 296.033ZM443.535 296.887C441.9 299.943 442.325 300.391 444.414 297.814C447.457 294.06 447.96 296.374 445.52 302.901C444.283 306.208 443.545 309.628 443.88 310.5C444.802 312.904 449.498 311.919 451.249 308.953L452.726 306.453L450.641 308.779C447.274 312.536 446.442 310.486 448.755 304.134C449.915 300.95 450.571 297.581 450.213 296.648C449.317 294.312 444.828 294.473 443.535 296.887ZM467.631 298.131C463.689 302.162 462.572 307.27 465.036 309.993C467.496 312.711 471.663 312.473 474.5 309.453C477.02 306.77 476.393 305.917 473.804 308.506C471.599 310.711 468.072 309.957 467.68 307.198C467.419 305.36 468.189 304.587 471.839 303.022C478.392 300.213 479.514 294.953 473.56 294.953C471.707 294.953 469.67 296.045 467.631 298.131ZM507.799 297.203C504.94 300.343 503.5 303.394 503.5 306.316C503.5 311.969 510.311 313.912 514.5 309.453C517.292 306.481 516.328 306.157 512.844 308.897C511.485 309.966 509.675 310.574 508.823 310.247C506.634 309.407 507.637 301.611 510.419 297.849C513.045 294.297 510.923 293.773 507.799 297.203ZM651.155 296.782C650.245 297.788 649.51 299.025 649.522 299.532C649.534 300.038 650.404 299.335 651.454 297.968C654.368 294.176 655.11 296.377 653.006 302.568C651.618 306.651 651.396 308.564 652.168 309.788C653.345 311.655 658.629 312.065 659.206 310.334C659.442 309.627 658.644 309.394 657.04 309.701C653.976 310.286 653.988 310.468 656.623 303.583C657.791 300.532 658.48 297.342 658.154 296.494C657.344 294.382 653.172 294.553 651.155 296.782ZM662.671 302.069C660.309 309.628 660.759 311.953 664.583 311.953C666.488 311.953 670.871 307.99 669.966 307.086C669.685 306.804 668.737 307.597 667.861 308.848C664.162 314.128 664.395 306.407 668.243 296.203C668.517 295.475 667.917 294.953 666.804 294.953C665.311 294.953 664.408 296.507 662.671 302.069ZM787.5 301.6C785.728 307.183 783.73 309.953 781.477 309.953C779.879 309.953 779.5 309.273 779.5 306.403C779.5 299.784 784.428 293.518 787.361 296.407C788.474 297.502 788.499 298.452 787.5 301.6ZM387.3 301.098C387.542 304.825 387.127 306.275 385.165 308.556C383.066 310.997 382.506 311.203 381.115 310.048C378.992 308.287 379.106 305.418 381.507 300.127C384.205 294.183 386.881 294.632 387.3 301.098ZM474.469 297.703C474.437 299.485 469.784 303.571 468.851 302.637C468.569 302.355 468.892 301.073 469.569 299.789C471.618 295.9 474.523 294.664 474.469 297.703ZM684.023 296.99C685.195 298.886 683.338 306.031 680.963 308.761C679.024 310.99 678.31 311.258 676.811 310.318C674.682 308.983 674.836 305.152 677.205 300.527C679.445 296.152 682.519 294.557 684.023 296.99ZM771.5 297.382C771.5 299.235 768.766 301.953 766.903 301.953C765.652 301.953 765.666 301.533 767 298.953C768.598 295.862 771.5 294.849 771.5 297.382Z" fill="#221F1F"/>
<path fill-rule="evenodd" clip-rule="evenodd" d="M235 1.84025C226.583 4.28625 222.855 6.45524 217.347 12.1102C213.681 15.8732 212.081 18.5692 210.529 23.5962C209.413 27.2082 208.5 31.8352 208.5 33.8772C208.5 37.9102 211.125 47.8712 212.591 49.4032C213.091 49.9252 213.5 50.7912 213.5 51.3272C213.5 53.2642 208.468 47.5182 206.372 43.1892C204.575 39.4762 204.325 37.6772 204.836 32.1052C205.172 28.4462 205.716 24.3282 206.046 22.9532C206.633 20.5032 206.593 20.5132 204.015 23.4532C198.831 29.3662 195.224 37.9292 194.747 45.4532C194.185 54.3182 196.701 61.4702 203.58 70.5592C208.154 76.6022 207.79 77.7472 202.792 73.0352C199.655 70.0772 199.239 70.3992 199.981 75.2032C201.564 85.4473 205.904 94.7652 210.934 98.7222C214.285 101.358 214.184 102.087 210.64 100.852C205.61 99.0993 201.86 94.2872 197.535 84.0362C195.242 78.6022 191.786 72.3112 189.855 70.0552C187.924 67.7992 186.769 65.9532 187.287 65.9532C188.47 65.9532 193.44 69.7802 195.717 72.4442C197.375 74.3842 197.435 74.3882 197.467 72.5412C197.485 71.4892 196.363 68.6892 194.973 66.3172C192.265 61.6962 186.803 57.9472 179.783 55.8912C177.463 55.2122 175.802 54.2732 176.092 53.8052C177.009 52.3202 182.843 52.9262 187.359 54.9752C192.87 57.4762 192.829 57.4842 191.115 54.2032C188.479 49.1572 184.234 46.0412 178.521 44.9572C173.578 44.0192 171.2 44.1202 163.25 45.6002C161.738 45.8812 160.5 45.7092 160.5 45.2172C160.5 43.6752 168.308 39.8522 171.929 39.6202C177.325 39.2752 177.02 38.4592 170.378 35.4792C164.935 33.0362 163.325 32.7652 156.607 33.1632C148.907 33.6192 143.48 35.4912 136.636 40.0522L133.273 42.2932L134.943 39.0622C135.862 37.2852 138.64 34.4032 141.116 32.6582C145.319 29.6962 145.479 29.4232 143.522 28.5492C142.177 27.9492 139.227 28.0232 135.293 28.7542C127.21 30.2582 120.031 35.0842 114.989 42.4052C110.313 49.1932 109.322 48.2062 112.921 40.3452C114.339 37.2462 115.5 34.5302 115.5 34.3092C115.5 33.7292 110.506 36.9572 107 39.8022C100.528 45.0562 95.533 56.3142 95.468 65.7922C95.439 70.1082 95.328 70.3092 93.968 68.5122C93.081 67.3392 92.467 64.1722 92.416 60.5122L92.331 54.4532L90.266 58.9532C87.149 65.7432 87.344 75.6912 90.752 83.7722C94.84 93.4692 91.888 91.1602 83.809 78.3432C82.796 76.7362 82.609 77.2452 82.559 81.7352C82.482 88.6172 85.7 98.0162 90.59 105.192C92.74 108.348 94.5 111.191 94.5 111.51C94.5 112.27 88.777 108.327 85.111 105.042L82.223 102.453L82.878 105.953C84.011 111.998 88.642 119.799 94.772 125.987C101.012 132.285 100.585 133.568 93.46 129.933C90.523 128.434 89.5 128.255 89.5 129.237C89.5 131.017 94.836 139.353 99.72 145.203C101.902 147.815 103.39 149.953 103.027 149.953C101.803 149.953 98.013 147.715 95.754 145.657C94.519 144.532 93.279 143.841 92.999 144.121C92.5 144.619 93.934 153.506 95.15 157.453L95.766 159.453L93.495 157.453C92.246 156.353 90.605 153.99 89.849 152.203C89.092 150.416 88.26 148.953 88 148.953C87.011 148.953 84.701 155.859 84.011 160.874C83.316 165.926 83.241 166.028 81.755 163.907C80.91 162.7 79.684 159.902 79.03 157.69L77.843 153.669L75.547 156.061C74.285 157.377 72.332 160.478 71.208 162.953L69.163 167.453L68.41 164.673C67.996 163.144 68.064 160.474 68.561 158.739C69.059 157.005 69.282 155.402 69.058 155.178C67.999 154.118 64.296 156.451 60.502 160.567C58.201 163.063 56.117 164.903 55.87 164.657C55.624 164.41 56.108 162.238 56.946 159.831C57.785 157.423 58.477 155.115 58.485 154.703C58.523 152.777 55.045 154.332 51.023 158.039L46.59 162.124L47.511 158.916C48.017 157.151 49.121 154.654 49.965 153.365C50.809 152.077 51.5 150.734 51.5 150.38C51.5 149.192 46.036 151.051 42.25 153.528C37.742 156.477 37.285 155.022 41 149.548C42.375 147.522 43.5 145.6 43.5 145.277C43.5 144.032 35.247 145.872 33.422 147.523C31.589 149.183 31.5 149.174 31.5 147.33C31.5 145.21 34.124 140.914 36.19 139.653C36.91 139.213 37.5 138.367 37.5 137.773C37.5 136.626 30.522 137.111 27.135 138.494C25.528 139.15 25.37 138.923 25.995 136.854C26.394 135.534 28.095 133.005 29.775 131.235C32.436 128.433 32.609 127.932 31.118 127.36C30.175 126.998 27.626 126.941 25.452 127.233C23.279 127.524 21.5 127.388 21.5 126.93C21.5 126.11 24.514 123.553 28.142 121.297C29.94 120.179 29.935 120.091 28 118.579C26.9 117.719 24.457 116.712 22.57 116.339L19.14 115.663L21.431 113.808C22.691 112.788 24.609 111.953 25.694 111.953C28.421 111.953 27.503 109.863 23.718 107.453C19.63 104.85 19.702 103.953 24 103.953C28.406 103.953 28.584 102.043 24.5 98.6062C22.85 97.2182 21.5 95.7722 21.5 95.3932C21.5 94.6562 25.733 95.3232 28.953 96.5682C30.689 97.2392 30.601 96.8012 28.161 92.6382C25.107 87.4262 25.451 87.0162 30.363 90.0112C32.212 91.1382 33.892 91.8942 34.096 91.6912C34.299 91.4872 34.031 89.8052 33.5 87.9532C32.969 86.1012 32.695 84.4252 32.892 84.2282C33.088 84.0322 34.608 85.0142 36.269 86.4122C40.024 89.5723 40.5 89.5772 40.5 86.4532C40.5 85.0782 40.882 83.9532 41.35 83.9532C43.24 83.9532 50.359 89.9892 52.441 93.3572C54.334 96.4202 56.5 98.0872 56.5 96.4822C56.5 93.8212 50.971 84.6562 47.652 81.8152C33.677 69.8532 13.553 76.7282 3.731 96.8212L0 104.453L0.0480042 118.453C0.0900041 130.89 0.395003 133.35 2.772 140.484C10.598 163.966 31.68 185.458 54.334 193.049L60.669 195.172L57.701 196.977C54.263 199.068 51.5 202.67 51.5 205.062C51.5 206.253 52.709 206.907 55.755 207.364C60.265 208.04 70.5 213.322 70.5 214.973C70.5 216.342 118.692 216.279 121.703 214.906C122.966 214.33 125.735 211.376 127.855 208.341C132.363 201.889 135.83 200.037 138.64 202.58C142.692 206.246 139.746 212.362 134.032 212.147C130.797 212.025 130.617 212.167 131.733 213.955C136.909 222.243 150.621 214.348 149.218 203.886C148.63 199.504 149.524 198.977 152.5 201.953C154.932 204.385 155.089 208.644 152.839 211.13C150.681 213.516 151.821 214.573 155.27 213.384C156.917 212.816 158.716 210.98 159.806 208.754C162.211 203.839 161.213 198.702 156.949 194.049C153.904 190.726 153.292 190.49 147.842 190.542C143.252 190.586 139.428 191.639 130 195.455C115.371 201.375 107.589 202.4 103.25 198.977C101.738 197.784 100.5 196.425 100.5 195.957C100.5 193.779 106.092 188.937 114.898 183.489C126.644 176.224 134.498 168.692 138.209 161.136C140.726 156.012 141 154.421 141 144.953V134.453L133.57 118.953C126.766 104.758 126.103 102.817 125.703 95.8942C125.345 89.7062 125.63 87.6182 127.276 84.3932C131.89 75.3532 140.938 71.9072 151.642 75.1143C157.513 76.8733 162.79 82.0002 166.076 89.1402C168.889 95.2532 168.968 95.8483 168.569 107.953C167.613 136.985 168.395 143.009 174.507 153.665C181.889 166.534 202.314 183.534 222.405 193.531C233.756 199.18 234.335 199.619 234.962 203.037C236.484 211.335 242.115 216.546 249.26 216.27C252.421 216.147 254.606 216.764 257.165 218.5C267.261 225.352 280.5 221.052 280.5 210.921C280.5 207.191 279.901 206.126 275 201.146C271.975 198.073 269.447 194.859 269.382 194.005C269.025 189.331 271.122 186.953 275.602 186.953C279.107 186.953 283.5 192.002 283.5 196.03C283.5 197.638 283.898 198.953 284.383 198.953C286.733 198.953 287.268 186.329 285.095 182.153C282.202 176.594 278.8 174.453 272.857 174.453C267.576 174.453 267.201 174.637 262.641 179.453C260.037 182.203 257.198 185.484 256.331 186.744L254.754 189.035L251.377 187.139C249.52 186.097 245.753 183.97 243.007 182.414L238.015 179.584L245.254 178.365C258.183 176.186 271.709 167.823 277.527 158.409C279.414 155.356 280.152 154.953 283.859 154.953C286.167 154.953 289.103 154.219 290.383 153.322C293.13 151.398 295.733 145.723 294.883 143.509C293.86 140.843 296.535 141.788 300.1 145.353C302.695 147.948 303.5 149.597 303.5 152.318C303.5 156.741 301.079 158.28 294.893 157.788C289.468 157.357 289.249 158.647 294.035 162.849C299.97 168.061 307.382 166.874 310.141 160.269C312.122 155.529 311.236 152.261 305.833 144.37C302.427 139.395 301.473 137.195 301.932 135.369C302.355 133.681 303.238 132.953 304.864 132.953C307.953 132.953 310.752 136.183 312.091 141.29L313.181 145.453L314.335 141.453C315.922 135.95 315.765 133.133 313.604 128.374C310.932 122.492 307.265 119.953 301.442 119.953C295.507 119.953 291.516 122.965 288.846 129.458C287.343 133.112 286.528 133.946 284.457 133.949C282.261 133.952 281.654 133.188 280.005 128.337C277.263 120.268 271.741 115.045 259.742 109.168C254.303 106.504 248.177 103.045 246.127 101.482C238.37 95.5662 234.708 84.7062 238.196 77.9672C243.042 68.6032 255.244 70.9012 260.189 82.1102C261.988 86.1872 263.5 86.2942 263.5 82.3442C263.5 79.3862 265.901 74.3633 268.863 71.1273L270.991 68.8012L266.858 64.9462C260.301 58.8292 253.507 57.9582 243.131 61.9032C239.702 63.2072 239.805 62.5022 244.024 55.7562C249.22 47.4492 255.186 44.5212 263.18 46.3532C266.357 47.0802 269.694 50.5952 272.77 56.4532C273.873 58.5532 274.48 59.0032 274.795 57.9532C275.042 57.1282 275.978 53.9322 276.876 50.8512C278.511 45.2422 284.685 34.6592 287.827 32.0812C290.205 30.1302 289.899 28.9532 287.014 28.9532C285.647 28.9532 281.5 27.3462 277.798 25.3822C272.309 22.4702 270.415 21.9312 267.534 22.4592C263.855 23.1342 255.626 27.8882 253.327 30.6672C251.26 33.1662 242.769 36.7272 240.096 36.2162C238.772 35.9632 236.218 34.5282 234.42 33.0282C231.525 30.6112 231.103 29.6082 230.714 24.2322C229.985 14.1602 233.673 6.94625 241.626 2.88924C243.757 1.80224 245.5 0.696244 245.5 0.433244C245.5 -0.496756 240.933 0.115245 235 1.84025ZM329.5 156.953C329.5 259.62 329.838 311.953 330.5 311.953C331.162 311.953 331.5 259.62 331.5 156.953C331.5 54.2862 331.162 1.95324 330.5 1.95324C329.838 1.95324 329.5 54.2862 329.5 156.953ZM349.5 3.84624C349.5 4.33724 350.175 4.99824 351 5.31524C352.208 5.77824 352.5 8.04224 352.5 16.9542C352.5 27.5032 352.395 28.0582 350.25 28.8852C346.377 30.3782 350.66 31.2602 359.299 30.7482C371.784 30.0072 376.885 26.0062 376.885 16.9532C376.885 7.49125 370.594 3.01325 357.25 2.97525C352.988 2.96325 349.5 3.35524 349.5 3.84624ZM389.25 4.62724C391.35 6.09224 391.5 6.92525 391.5 17.1062C391.5 25.8812 391.206 28.1282 390 28.5912C386.716 29.8522 388.814 30.9532 394.5 30.9532C400.186 30.9532 402.284 29.8522 399 28.5912C397.938 28.1842 397.5 26.5272 397.5 22.9182C397.5 17.9472 397.568 17.8282 400.25 18.1372C402.625 18.4102 403.162 19.1112 404.191 23.2802C405.749 29.5922 407.123 31.1252 410.892 30.7542C414.086 30.4402 417.045 26.5882 415.69 24.5092C415.309 23.9232 414.86 24.4552 414.682 25.7032C414.232 28.8582 411.658 28.5132 410.95 25.2032C409.883 20.2152 408.651 18.1362 406.327 17.3982L404.033 16.6702L406.208 15.8652C407.405 15.4232 409.148 13.8932 410.084 12.4662C411.455 10.3732 411.565 9.39224 410.654 7.39224C409.076 3.92924 405.718 2.94525 395.685 3.00524C387.498 3.05524 387.129 3.14824 389.25 4.62724ZM425 3.95324C425.34 4.50324 426.21 4.95324 426.934 4.95324C428.648 4.95324 429.5 9.45024 429.5 18.4962C429.5 26.6652 428.93 28.9532 426.893 28.9532C426.127 28.9532 425.5 29.4032 425.5 29.9532C425.5 30.5622 430.01 30.9532 437.031 30.9532C449.685 30.9532 449.9 30.8462 449.32 24.7982L449 21.4532L446.751 25.2582C444.592 28.9122 444.314 29.0512 439.751 28.7582L435 28.4532L434.7 22.7032C434.412 17.1762 434.496 16.9532 436.867 16.9532C438.393 16.9532 440.115 18.0012 441.385 19.7032L443.437 22.4532L443.468 16.5572L443.5 10.6612L440.983 13.3772C437.127 17.5382 435.061 16.4922 434.698 10.1942L434.395 4.95324H438.407C441.495 4.95324 443.004 5.58424 444.96 7.69324L447.5 10.4332V6.69324V2.95324H435.941C428.49 2.95324 424.602 3.30824 425 3.95324ZM458.5 3.71624C458.5 4.13524 459.51 4.92325 460.744 5.46625C461.979 6.00924 464.749 9.02225 466.901 12.1612L470.814 17.8702L466.08 23.4112C463.476 26.4592 460.705 28.9532 459.923 28.9532C459.14 28.9532 458.5 29.4032 458.5 29.9532C458.5 30.5032 460.75 30.9532 463.5 30.9532C468.388 30.9532 470.075 29.7712 466.916 28.5592C465.598 28.0532 465.867 27.2782 468.526 23.9212C472.007 19.5252 472.723 19.6252 475.847 24.9442C477.671 28.0512 477.668 28.0962 475.597 28.6382C471.144 29.8022 473.829 30.9532 481 30.9532C488.022 30.9532 490.875 29.8072 486.623 28.6952C484.889 28.2422 476.492 17.0872 476.506 15.2582C476.519 13.7222 484.663 4.95324 486.078 4.95324C486.86 4.95324 487.5 4.50324 487.5 3.95324C487.5 3.39924 484.938 2.96724 481.75 2.98524C476.754 3.01224 476.229 3.19124 477.75 4.34524C480.012 6.06224 479.955 7.10524 477.427 10.3182C474.814 13.6402 474.322 13.6152 472.216 10.0492C470.122 6.50425 470.038 4.95324 471.941 4.95324C472.734 4.95324 473.66 4.50324 474 3.95324C474.392 3.31824 471.677 2.95324 466.559 2.95324C462.127 2.95324 458.5 3.29624 458.5 3.71624ZM498.5 3.84624C498.5 4.33724 499.175 4.99824 500 5.31524C501.213 5.78024 501.5 8.09424 501.5 17.4222C501.5 27.0052 501.247 28.9532 500 28.9532C499.175 28.9532 498.5 29.4032 498.5 29.9532C498.5 30.5622 503.01 30.9532 510.031 30.9532C522.685 30.9532 522.9 30.8462 522.32 24.7982L522 21.4532L519.751 25.2582C517.592 28.9122 517.314 29.0512 512.751 28.7582L508 28.4532L507.698 22.6322L507.396 16.8102L510.198 17.1322C511.95 17.3322 513.37 18.2972 513.987 19.7032C515.616 23.4172 516.5 22.2742 516.5 16.4532C516.5 13.4282 516.05 10.9532 515.5 10.9532C514.95 10.9532 514.5 11.6122 514.5 12.4182C514.5 14.2352 510.841 16.2982 508.922 15.5612C507.953 15.1902 507.5 13.4112 507.5 9.98425V4.95324H511.429C515.134 4.95324 518.5 6.89124 518.5 9.02424C518.5 9.53524 518.95 9.95325 519.5 9.95325C520.05 9.95325 520.5 8.37824 520.5 6.45324V2.95324H509.5C503.45 2.95324 498.5 3.35524 498.5 3.84624ZM532.5 3.83625C532.5 4.32225 533.4 4.95525 534.5 5.24325C536.35 5.72625 536.5 6.60725 536.5 16.9532C536.5 27.2992 536.35 28.1802 534.5 28.6632C529.453 29.9832 533.491 30.9532 544.031 30.9532C556.685 30.9532 556.9 30.8462 556.32 24.7982L556 21.4532L553.75 25.2602C551.639 28.8332 551.237 29.0492 547.25 28.7602L543 28.4532L542.718 16.7032C542.483 6.89425 542.68 4.95324 543.909 4.95324C544.719 4.95324 545.66 4.50324 546 3.95324C546.39 3.32224 544.01 2.95324 539.559 2.95324C535.677 2.95324 532.5 3.35125 532.5 3.83625ZM582.5 3.95324C582.5 4.50324 583.127 4.95324 583.893 4.95324C586.013 4.95324 586.5 7.27525 586.5 17.3802C586.5 25.3092 586.782 26.8982 588.459 28.4162C590.964 30.6832 598.615 31.5622 602.354 30.0142C606.424 28.3282 607.5 25.1642 607.5 14.8812C607.5 6.22524 607.59 5.86924 610 4.95324C613.902 3.47024 612.997 2.95324 606.5 2.95324C600.22 2.95324 598.955 3.80125 602.75 5.46625C604.805 6.36825 605.025 7.22325 605.291 15.3452C605.554 23.3702 605.366 24.4672 603.367 26.5952C600.629 29.5092 596.216 29.6692 593.5 26.9532C591.778 25.2312 591.5 23.6202 591.5 15.3592C591.5 6.60725 591.675 5.72025 593.5 5.24325C597.639 4.16025 595.266 2.95324 589 2.95324C585.333 2.95324 582.5 3.38925 582.5 3.95324ZM620.5 3.79224C620.5 4.25424 621.641 5.15224 623.035 5.78724C625.538 6.92724 625.566 7.07324 625.285 17.1702C625.021 26.6292 624.831 27.4832 622.756 28.5152C621.522 29.1292 620.809 29.9292 621.173 30.2922C622.238 31.3572 632.5 31.0502 632.5 29.9532C632.5 29.4032 631.88 28.9532 631.122 28.9532C628.281 28.9532 627.414 26.2052 627.708 18.1322L628 10.1162L636.24 20.5352C640.772 26.2652 644.921 30.9532 645.459 30.9532C646.03 30.9532 646.556 25.8382 646.719 18.7032C646.985 7.08924 647.117 6.40225 649.25 5.46625C653.091 3.78125 651.754 2.95224 645.25 2.98524C639.609 3.01424 639.184 3.15624 640.892 4.44924C641.932 5.23625 643.192 6.01724 643.69 6.18324C644.189 6.34924 644.463 9.85325 644.299 13.9692L644 21.4532L636.673 12.2032C629.411 3.03524 629.307 2.95324 624.923 2.95324C622.49 2.95324 620.5 3.33124 620.5 3.79224ZM660.5 3.83625C660.5 4.32225 661.4 4.95525 662.5 5.24325C664.35 5.72625 664.5 6.60725 664.5 16.9532C664.5 27.2992 664.35 28.1802 662.5 28.6632C658.375 29.7422 660.724 30.9532 666.941 30.9532C673.286 30.9532 676.374 29.6762 672.489 28.6602C670.648 28.1792 670.5 27.2772 670.5 16.5472C670.5 7.11924 670.769 4.95324 671.941 4.95324C672.734 4.95324 673.66 4.50324 674 3.95324C674.39 3.32224 672.01 2.95324 667.559 2.95324C663.677 2.95324 660.5 3.35125 660.5 3.83625ZM682.5 3.88024C682.5 4.38925 683.279 4.95624 684.232 5.14024C685.446 5.37425 687.323 9.21325 690.504 17.9632C693.32 25.7112 695.566 30.4532 696.421 30.4532C697.229 30.4532 699.818 25.6962 702.679 18.9532C705.363 12.6282 708.445 6.70624 709.529 5.79324C712.436 3.34424 712.019 2.95324 706.5 2.95324C703.75 2.95324 701.5 3.40324 701.5 3.95324C701.5 4.50324 702.148 4.95324 702.941 4.95324C703.734 4.95324 704.637 5.36624 704.949 5.87024C705.709 7.10024 699.346 23.2302 698.493 22.2342C697.743 21.3592 692.488 6.87424 692.495 5.70324C692.498 5.29024 693.175 4.95324 694 4.95324C694.825 4.95324 695.5 4.50324 695.5 3.95324C695.5 3.38925 692.667 2.95324 689 2.95324C685.425 2.95324 682.5 3.37024 682.5 3.88024ZM721.25 4.62724C723.36 6.09924 723.5 6.90724 723.5 17.5752C723.5 28.6312 723.438 28.9532 721.3 28.9532C719.785 28.9532 719.422 29.2752 720.134 29.9872C720.761 30.6142 725.665 30.9102 732.584 30.7372L744 30.4532L744.31 26.7032C744.686 22.1642 743.597 21.9172 741.265 26.0152C739.661 28.8322 739.168 29.0412 734.765 28.7582L730 28.4532L729.7 22.7032C729.452 17.9522 729.681 16.9532 731.016 16.9532C733.528 16.9532 736.5 18.8692 736.5 20.4882C736.5 21.2942 736.95 21.9532 737.5 21.9532C738.05 21.9532 738.5 19.4782 738.5 16.4532C738.5 13.4282 738.05 10.9532 737.5 10.9532C736.95 10.9532 736.5 11.6122 736.5 12.4182C736.5 14.2352 732.841 16.2982 730.922 15.5612C729.953 15.1902 729.5 13.4112 729.5 9.98425V4.95324H733.427C736.426 4.95324 737.82 5.54524 739.321 7.45324C741.943 10.7862 742.5 10.6112 742.5 6.45324V2.95324L730.75 3.00524C719.777 3.05424 719.149 3.16224 721.25 4.62724ZM754.5 3.83625C754.5 4.32225 755.4 4.95525 756.5 5.24325C758.35 5.72625 758.5 6.60725 758.5 16.9532C758.5 27.2992 758.35 28.1802 756.5 28.6632C752.361 29.7462 754.734 30.9532 761 30.9532C764.667 30.9532 767.5 30.5172 767.5 29.9532C767.5 29.4032 766.825 28.9532 766 28.9532C764.848 28.9532 764.5 27.6752 764.5 23.4532C764.5 18.6732 764.754 17.9532 766.443 17.9532C768.896 17.9532 771.5 21.5922 771.5 25.0212C771.5 28.2322 774.311 30.9532 777.629 30.9532C780.817 30.9532 782.516 29.2042 782.437 26.0032L782.373 23.4532L781.438 25.7872C780.082 29.1702 778.159 27.9392 777.197 23.0722C776.596 20.0322 775.68 18.5372 773.934 17.7412L771.506 16.6352L773.733 15.5242C778.761 13.0172 779.134 6.66125 774.396 4.21825C771.661 2.80825 754.5 2.47925 754.5 3.83625ZM794.596 5.55925C790.217 11.1252 792.584 15.7942 801.815 19.8062C806.309 21.7582 806.61 22.1182 806.315 25.1762C806.035 28.0892 805.626 28.4892 802.641 28.7752C799.059 29.1172 795.088 26.3802 793.945 22.7802C792.966 19.6942 791.508 21.7932 791.675 26.0502C791.833 30.0892 793.171 32.1032 794.388 30.1342C794.816 29.4422 795.579 29.3912 796.526 29.9902C797.337 30.5032 799.933 30.9292 802.295 30.9382C807.852 30.9572 811.5 27.6422 811.5 22.5702C811.5 18.3182 809.769 16.4892 802.849 13.4292C798.425 11.4722 797.5 10.6272 797.5 8.54325C797.5 2.92225 805.172 3.33424 807.554 9.08324C809.26 13.2022 810.5 12.6212 810.5 7.70324V3.45324L803.596 3.17424C797.151 2.91324 796.552 3.07225 794.596 5.55925ZM822.5 3.83625C822.5 4.32225 823.4 4.95525 824.5 5.24325C826.35 5.72625 826.5 6.60725 826.5 16.9532C826.5 27.2992 826.35 28.1802 824.5 28.6632C820.361 29.7462 822.734 30.9532 829 30.9532C832.667 30.9532 835.5 30.5172 835.5 29.9532C835.5 29.4032 834.877 28.9532 834.117 28.9532C832.135 28.9532 831.529 25.7302 831.514 15.1092C831.501 6.60124 831.679 5.71925 833.5 5.24325C837.639 4.16025 835.266 2.95324 829 2.95324C825.425 2.95324 822.5 3.35125 822.5 3.83625ZM845.532 7.20324C845.561 11.1602 845.662 11.3152 846.998 9.45325C849.837 5.49325 850.719 4.84325 852.843 5.14625C854.8 5.42525 855.029 6.14825 855.312 12.9532C855.771 23.9662 854.857 28.9532 852.38 28.9532C851.281 28.9532 850.66 29.4032 851 29.9532C851.762 31.1862 864.5 31.2962 864.5 30.0702C864.5 29.5842 863.6 28.9512 862.5 28.6632C860.645 28.1782 860.5 27.2992 860.5 16.5472V4.95324H863.5C865.15 4.95324 866.51 5.29024 866.522 5.70324C866.534 6.11624 867.424 7.57825 868.5 8.95325L870.456 11.4532L870.478 7.20324L870.5 2.95324H858H845.5L845.532 7.20324ZM877.5 3.83625C877.5 4.32225 878.369 4.94724 879.431 5.22524C882.415 6.00524 888.5 18.8902 888.5 24.4282C888.5 28.2862 888.205 28.9532 886.5 28.9532C885.4 28.9532 884.5 29.4032 884.5 29.9532C884.5 30.5242 887.5 30.9532 891.5 30.9532C898.185 30.9532 900.755 29.7762 896.5 28.6632C891.847 27.4462 895.367 14.5892 902.42 7.03925C904.114 5.22524 905.5 3.56424 905.5 3.34724C905.5 3.13024 903.475 2.95324 901 2.95324C898.525 2.95324 896.5 3.40324 896.5 3.95324C896.5 4.50324 897.175 4.95324 898 4.95324C898.825 4.95324 899.5 5.23024 899.5 5.56824C899.5 6.65024 894.205 15.9532 893.589 15.9532C892.887 15.9532 888.493 7.85125 888.497 6.56325C888.499 6.07425 889.287 5.07624 890.25 4.34524C891.757 3.20124 890.994 3.01224 884.75 2.98524C880.763 2.96724 877.5 3.35125 877.5 3.83625ZM367.138 7.31824C369.508 9.35625 369.946 10.5962 370.308 16.2812C370.709 22.5772 370.586 23.0202 367.624 25.9832C365.359 28.2482 363.773 29.0022 361.76 28.7702L359 28.4532L358.718 16.7032L358.437 4.95324H361.413C363.1 4.95324 365.579 5.97724 367.138 7.31824ZM403.503 6.45624C406.455 10.0142 404.188 15.9532 399.878 15.9532C397.662 15.9532 397.5 15.5772 397.5 10.4532C397.5 5.32925 397.662 4.95324 399.878 4.95324C401.185 4.95324 402.816 5.62924 403.503 6.45624ZM770.3 6.15325C772.254 8.10725 771.783 13.7312 769.566 14.9182C765.434 17.1292 764.5 16.3052 764.5 10.4532C764.5 5.38125 764.679 4.95324 766.8 4.95324C768.065 4.95324 769.64 5.49325 770.3 6.15325ZM275.3 29.1532C278.686 32.5392 274.472 36.6302 269.52 34.7632C266.309 33.5522 265.405 32.0002 266.605 29.7572C267.725 27.6642 273.416 27.2692 275.3 29.1532ZM237.34 42.9532C240.111 42.9532 240.436 43.2022 239.624 44.7032C238.3 47.1492 233.158 49.9782 231.687 49.0682C230.364 48.2512 228.5 42.6672 228.5 39.5232C228.5 37.7742 228.782 37.8492 231.305 40.2662C233.166 42.0492 235.197 42.9532 237.34 42.9532ZM210.119 123.699C212.095 125.7 216.589 127.058 218.882 126.347C220.047 125.986 222.206 124.841 223.68 123.804C227.077 121.411 227.517 122.137 228.209 131.286C229.221 144.674 223.352 149.471 213.688 143.153C209.453 140.385 203.564 125.228 203.515 116.971C203.501 114.705 203.734 114.835 206.194 118.471C207.676 120.661 209.442 123.014 210.119 123.699ZM284.5 145.953C284.5 146.918 283.825 148.268 283 148.953C281.707 150.026 281.5 149.613 281.5 145.953C281.5 142.293 281.707 141.88 283 142.953C283.825 143.638 284.5 144.988 284.5 145.953ZM268.223 202.926C276.809 208.16 270.391 217.05 261.087 212.81C258.593 211.674 258.59 211.655 260.47 209.264C261.511 207.941 262.654 205.53 263.01 203.906C263.777 200.415 264.028 200.368 268.223 202.926ZM246.863 203.937C248.084 205.128 246.716 206.953 244.601 206.953C243.622 206.953 242.285 205.776 241.629 204.337C240.472 201.799 240.52 201.741 243.218 202.407C244.748 202.785 246.388 203.473 246.863 203.937Z" fill="#FFC500"/>
</svg>
